PathFileType	4	(X/Y/Z)	Patient4_TMGait_0pt6_01_left_25.trc.trc
DataRate	CameraRate	NumFrames	NumMarkers	Units	OrigDataRate	OrigDataStartFrame	OrigNumFrames
82.352941176471	82.352941176471	6	33	mm	82.352941176471	36	       141
Frame#	Time	Sacral			L.Shoulder			Chest			R.Shoulder			Neck			R.ASIS			L.ASIS			R.Thigh.Superior			R.Thigh.Lateral			R.Thigh.Inferior			R.Patella			L.Thigh.Superior			L.Thigh.Lateral			L.Thigh.Inferior			L.Patella			L.Shank.Superior			L.Shank.Lateral			L.Shank.Inferior			R.Shank.Superior			R.Shank.Lateral			R.Shank.Inferior			R.Heel			R.Midfoot.Superior			R.Midfoot.Lateral			R.Toe			L.Heel			L.Midfoot.Lateral			L.Midfoot.Superior			L.Toe			L.Elbow			L.Wrist			R.Elbow			R.Wrist			
		X1	Y1	Z1	X2	Y2	Z2	X3	Y3	Z3	X4	Y4	Z4	X5	Y5	Z5	X6	Y6	Z6	X7	Y7	Z7	X8	Y8	Z8	X9	Y9	Z9	X10	Y10	Z10	X11	Y11	Z11	X12	Y12	Z12	X13	Y13	Z13	X14	Y14	Z14	X15	Y15	Z15	X16	Y16	Z16	X17	Y17	Z17	X18	Y18	Z18	X19	Y19	Z19	X20	Y20	Z20	X21	Y21	Z21	X22	Y22	Z22	X23	Y23	Z23	X24	Y24	Z24	X25	Y25	Z25	X26	Y26	Z26	X27	Y27	Z27	X28	Y28	Z28	X29	Y29	Z29	X30	Y30	Z30	X31	Y31	Z31	X32	Y32	Z32	X33	Y33	Z33	

36	30.845000000000	738.441444856189	1004.133710985360	490.113010681248	884.438808122681	1434.465171024130	309.925009633455	1001.378252913170	1369.542768112732	462.433446174505	926.871184677453	1438.032427591790	641.900304826654	876.859633131013	1492.719983913382	465.388567084435	965.015314582531	938.007040639731	600.751100000958	948.805452852337	961.005804787667	327.738742701938	983.272122885836	727.184700019750	583.363354086688	888.950912271631	626.681328000679	644.971407550604	965.765314945280	560.493755177208	574.802396271775	948.355503563368	455.345718292763	593.152359115960	1018.601110597180	763.656230740147	365.327533434465	949.925188948206	636.269975680180	303.326459518666	1042.953365625315	570.456168387123	369.723528871452	1052.358245678339	499.983806399573	379.317921078444	1031.599807517928	425.409960099706	371.921235606672	953.075871683128	303.408211858760	321.786236289366	1013.026300337261	197.608429539674	393.698593216230	874.448804601785	388.378500872835	594.947907475266	755.506134662346	338.161332538518	650.119331311796	751.401584169160	229.378741233019	596.304243540459	556.399012514788	136.582798870783	557.643947387714	730.213709222449	112.699803890833	606.691102082277	621.784267400747	87.879929866690	632.257248127687	813.438546808648	33.851011230693	632.282468402175	895.780097584703	37.897765747584	436.707448753038	969.316254708034	36.165190245845	355.566752969963	1051.818633062692	97.744541879155	382.138772182970	1180.566033251841	46.686736441568	352.875753427351	802.219985723144	1086.494767740088	207.350768864783	810.281916999883	826.381177231255	217.859544500163	993.850309107997	1097.206299069108	763.830469237764	1234.537429236001	1013.662047305839	735.773640850003	
37	30.857142857143	738.433157416643	1004.673287288212	487.021756065304	885.798338375958	1435.396320487324	307.633041481252	1001.906151496917	1370.229942970324	460.625513586975	926.440698749758	1438.452853766710	639.789834251179	877.301051804104	1493.468648629376	462.977324366010	964.763516335635	938.653706507695	598.046038446445	949.384425333113	961.826273126901	325.394201480259	988.469216160666	729.252737283592	581.477496318421	897.338638005250	626.884141799751	643.697502329908	976.100278190375	561.951590737864	573.672189568406	960.083214998295	455.395904205359	593.119942557672	1018.128379294242	762.943836942858	361.971894544554	947.297990509303	635.986227365229	301.620590132471	1039.839665882873	569.532179558291	367.904983167473	1048.619597123633	499.285491003796	378.194523282349	1027.363436851518	424.783903975443	371.003998978286	948.085101276003	303.241603111228	321.114236818393	1006.891700356555	197.220045265017	393.483151747368	884.126182124711	389.272980313233	594.822197539606	763.479549668842	343.245406130916	650.122451831438	755.791968838915	234.488092788354	596.947935714745	558.027530588250	151.408000446516	558.546747369983	729.573637965847	116.182860128070	607.393455766565	620.093438711847	98.264183270956	632.870270909554	806.766919505987	32.687314573906	632.556973483456	888.475479288249	37.870353942621	436.639065514858	962.012311606709	36.099189506690	355.487898597049	1044.609251873129	97.626258084274	382.097030139623	1173.361319142558	46.305994249043	352.789065759863	808.630776621917	1086.573951453104	202.615614525327	824.831227231201	826.666583825378	213.091574159559	984.350527913265	1095.322250913433	761.058570540285	1220.490610215708	997.810393083023	735.143820624716	
38	30.869285714286	738.229578717843	1005.048752730088	484.034182313260	887.147907869408	1436.198047941217	305.443333275788	1002.349903742599	1370.744846448118	458.958403713500	925.854266441375	1438.650461877724	637.811996459707	877.668461126748	1494.097682798714	460.649030712705	964.371754964608	939.180710546821	595.516100701062	949.786602253713	962.458295396738	323.184397110606	993.871680600141	731.543492611700	579.581715363423	906.143556113616	627.267382857690	642.363049366083	986.726939626835	563.769368251730	572.282436892773	972.256474683444	455.898009464728	592.534545086559	1017.347270888047	762.056144329028	358.965275410590	944.672923948594	635.666921648049	299.967532827508	1036.605571904017	568.597141917949	366.329268470862	1044.743877088060	498.515424337341	377.148005488221	1022.995617764070	424.096617059706	370.112497509706	942.961986615248	303.003503921298	320.481482092061	1000.682196447943	196.782346529665	393.287883961599	894.435712585438	390.482519087410	594.319620310275	772.366731159055	348.546058875234	649.961772899643	761.065618464520	239.997665568153	597.387071895103	561.120782405782	166.967982385516	559.373837447943	729.680186715245	120.236195742785	607.941524385797	619.519858681101	109.554986817730	633.460230730635	800.460211664414	31.434686397173	632.896382892759	881.108086757066	37.824410823157	436.593615994343	954.653250853102	36.017322472377	355.436389474906	1037.369734237561	97.456599465725	382.108240850827	1166.119678600595	45.815371196832	352.766149379380	814.932859222510	1086.720249155609	197.785570544880	840.036859670750	827.330454964630	208.254758658514	974.682977962172	1093.409502761669	758.185625907261	1205.223318360944	981.725656690886	734.472040394615	
39	30.881428571429	737.850173509094	1005.274901332515	481.190162908385	888.464663253422	1436.872906428566	303.371694232221	1002.703142601771	1371.089860753192	457.440040334576	925.134966509571	1438.648932074035	635.977001144378	877.968013248417	1494.618086720765	458.425566782882	963.855485699492	939.614327457012	593.174764924887	949.989179056077	962.911639481511	321.095879246180	999.346563234973	734.078376213938	577.600805658347	915.232638047299	627.897558772215	640.925120058419	997.456629426033	565.998258993692	570.572187231101	984.718732929712	456.899569350639	591.373535427990	1016.277186071743	761.077488956664	356.358313493655	942.118159083090	635.352840596331	298.363561894189	1033.317713876717	567.686388286923	364.973415244708	1040.796845062865	497.699844381255	376.159688604650	1018.559231044450	423.368304664115	369.244057983772	937.768822338656	302.722835682375	319.865950992592	994.435663230756	196.314129165872	393.097909625682	905.223818592597	392.047434238097	593.416494584624	782.014044261120	354.024069347105	649.587526852357	767.169597884901	245.836017709730	597.587589929226	565.663452275099	182.883970672703	560.089550875278	730.641663465412	124.840753187242	608.323121409027	620.173495269240	121.475255900613	633.986395619311	794.769250426141	30.226763052910	633.244755052064	873.711411237432	37.771530806963	436.561620761891	947.268417785362	35.933633372666	355.398931247634	1030.119421396470	97.260925477042	382.149448272526	1158.861024894253	45.260284797858	352.781287034273	821.152799041918	1086.923096826104	192.897071218470	855.830162700722	828.431555389376	203.388422357421	964.934835106190	1091.501405669899	755.226207172375	1188.717040876723	965.538686876117	733.738774540510	
40	30.893571428571	737.317996724254	1005.388996349005	478.515980212904	889.714631991887	1437.441567885163	301.433604363788	1002.956154335899	1371.289086204332	456.071161559339	924.306602903066	1438.489671268229	634.290672496875	878.205571087436	1495.051977416470	456.333367858623	963.238051012067	939.996461836200	591.023473661751	949.983582469023	963.216443352720	319.111448921271	1004.753692432723	736.874826080784	575.466508441596	924.461120716394	628.836393716324	639.357236048197	1008.105430651418	568.678654235749	568.514167831706	997.312985320945	458.438453353475	589.670741169272	1014.957137198705	760.083582188900	354.138075455737	939.639140966986	635.067447761265	296.813256322550	1030.009750900649	566.817112743188	363.788261641836	1036.816665710534	496.862572541217	375.212274105503	1014.091015368390	422.620169753480	368.397233709494	932.540603553090	302.426769154752	319.257465773771	988.175036701974	195.834236630879	392.902203998930	916.338578561718	393.999293475853	592.131390476648	792.253057592680	359.628992318454	648.969354261705	774.046576822369	251.903269286319	597.533478192254	571.577758573733	198.699869891069	560.667539396663	732.590652728079	129.930900258859	608.533201582325	622.147341495068	133.657784717793	634.407718937825	790.026421454083	29.235450710559	633.521486012083	866.312754334524	37.721302760524	436.536051375162	939.880992694105	35.858680924508	355.365614348375	1022.871691755916	97.060968980197	382.200037992473	1151.599505859395	44.683502993804	352.810588270440	827.332092738459	1087.186108134693	187.992773905500	872.139942191031	830.035650467941	198.536008124623	955.191754335527	1089.647136544493	752.197896582747	1170.963605434542	949.400872832929	732.925627146694	
41	30.905714285714	736.657260551592	1005.442436015781	476.022367820910	890.859838184281	1437.937373700736	299.641525709299	1003.098116327485	1371.383252884371	454.846236523681	923.389789392505	1438.224935637842	632.754281561113	878.386196198175	1495.427999660732	454.399071819584	962.547256296675	940.377320627106	589.055777382753	949.777993595127	963.417351745449	317.217078446614	1009.959926403339	739.942764584736	573.129677585831	933.680488568717	630.133589989009	637.652284766345	1018.506264266052	571.834190678102	566.119200290729	1009.887133049249	460.538895457487	587.505939095120	1013.437356764499	759.129747500028	352.242213038717	937.190693127978	634.820376954342	295.327329022288	1026.681936371461	565.991139807068	362.713039210557	1032.810289796515	496.023457008872	374.292990935369	1009.599253221560	421.872893076690	367.572810665788	927.286371607215	302.138120592308	318.654538355374	981.907643104821	195.360159258625	392.694447616605	927.637150959337	396.355477734823	590.518299148801	802.912580106795	365.294117127429	648.098994429453	781.638310056353	258.071324854671	597.224509771148	578.727641353998	213.905427398801	561.093425689038	735.671208608421	135.389516704415	608.565378635200	625.511971806999	145.666249700287	634.687230985268	786.636511358853	28.646393078054	633.629332223986	858.930570732678	37.680982223098	436.511890123587	932.506443974166	35.799230079201	355.330087608204	1015.633515612047	96.872886122880	382.243968628481	1144.342945586850	44.120646883042	352.835114971696	833.516009370172	1087.525589273397	183.119740826931	888.889822116723	832.211478385381	193.744011592145	945.534127069628	1087.904884461934	749.121767320035	1151.974842434520	933.489144882961	732.018195853450	
